<svg id="Calque_1" data-name="Calque 1" xmlns="http://www.w3.org/2000/svg" viewBox="0 0 2413.28 706.04"><defs><style>.cls-1{fill:#549926;stroke:#549926;stroke-miterlimit:10;stroke-width:10px;}</style></defs><path class="cls-1" d="M64,558.73V291.27H397.94V275.63H64v-244H419.06V16H48.36V574.37H422.18V558.73ZM723.28,172.39,584.86,354.61,449.56,172.4H429.22l146.25,194-160.33,208h18.77l150.94-196.3,151.72,196.3h19.55L595,366.34,742,172.39ZM803.05,712V461.76h1.56q14.08,54.75,55.53,88T965.72,583q41.44,0,73.51-16.81a156.41,156.41,0,0,0,53.58-45.75q21.5-28.93,32.84-67.26A282.44,282.44,0,0,0,1137,372.61q0-45.36-11.73-83.68t-34-66.48a156.41,156.41,0,0,0-54-43.79Q1005.6,163,965.72,163a173.41,173.41,0,0,0-56.7,9,151.61,151.61,0,0,0-46.53,25.42,171.7,171.7,0,0,0-35.19,38.71A178.23,178.23,0,0,0,804.61,285h-1.56V172.39H787.41V712Zm162.67-143.9q-73.51,0-118.09-50.44T803.05,372.6a248.61,248.61,0,0,1,11-74.29q10.95-35.19,31.67-61.78a152.19,152.19,0,0,1,51.23-42.24q30.5-15.64,68.82-15.64,39.1,0,68.43,15.64a138.82,138.82,0,0,1,48.49,42.62q19.15,27,28.94,61.79a272.36,272.36,0,0,1,9.77,73.9,279,279,0,0,1-9,70,200.2,200.2,0,0,1-27.77,62.57,151.12,151.12,0,0,1-48.09,45.35q-29.34,17.6-70.78,17.6Zm257.3,6.25V346.79a221.82,221.82,0,0,1,9.39-64.12,157.09,157.09,0,0,1,28.93-55.14Q1280.9,203.68,1311,190t71.56-11.34V163q-36-.78-63,7.82t-46.54,23.46a120.1,120.1,0,0,0-31.28,34.8,156,156,0,0,0-17.21,42.63H1223V172.39h-15.64v402H1223Zm179.09-197.86H1738.4a278.6,278.6,0,0,0-8.21-79.77q-9.78-38.33-31.28-68T1643.38,181q-34-18-80.94-18a164.61,164.61,0,0,0-122,55.13q-24.24,27-39.1,66.09t-14.86,89.16q0,44.57,10.17,83.28t31.28,67.26a141.23,141.23,0,0,0,54.35,44.19q33.24,15.64,80.17,14.86,68.8,0,115.74-38.71t55.53-109.1h-15.64q-10.17,66.48-52,99.71t-105.19,33.24q-43,0-72.73-14.86a131.64,131.64,0,0,1-48.49-40.67q-18.76-25.82-27.76-60.61t-9.78-75.47Zm320.65-15.64H1402.12q2.33-42.22,15.63-75.86t34.81-57.48a145.49,145.49,0,0,1,50-36.37A151.23,151.23,0,0,1,1564,178.65q39.11,0,68.82,14.47a142.14,142.14,0,0,1,49.66,39.5q19.95,25,30.11,58.26a237.91,237.91,0,0,1,10.17,70Zm340.2-69.6h15.64q0-67.26-39.1-97.76T1933.13,163q-37.55,0-63.35,9.39t-42.23,24.24q-16.41,14.85-23.46,32.84t-7,34.42q0,32.84,11.74,52.39t36.75,30.5a283.38,283.38,0,0,0,39.1,14.09q21.9,6.24,50.84,13.28,25.8,6.27,50.83,12.52t44.19,16.81a95.55,95.55,0,0,1,31.28,27q12.12,16.41,12.12,43,0,25.81-12.12,43.79a97.57,97.57,0,0,1-30.89,29.33A137.46,137.46,0,0,1,1989.05,563a208.64,208.64,0,0,1-45,5.09q-71.16,0-109.1-31.67t-37.92-99.72h-15.65q0,75.87,41.06,111.06T1944.08,583a237.51,237.51,0,0,0,52-5.87A144.42,144.42,0,0,0,2043,558a106,106,0,0,0,33.63-34.41q12.9-21.12,12.91-51.62,0-28.93-11.34-46.92a95.16,95.16,0,0,0-29.72-29.72A157.75,157.75,0,0,0,2007,376.91q-23.2-6.69-46.54-12.91-28.71-7.53-57.48-14.86a348.2,348.2,0,0,1-45.75-14.86q-20.32-8.61-32.45-24.63T1812.7,263.9q0-5.47,3.12-19.55t14.86-28.55q11.73-14.46,36-25.81t66.47-11.34q28.93,0,52.79,6.26T2027,204.85a90.81,90.81,0,0,1,26.59,34.8q9.39,21.12,9.39,51.62Zm362.09,0h15.64q0-67.26-39.1-97.76T2295.23,163q-37.55,0-63.35,9.39t-42.23,24.24q-16.43,14.85-23.47,32.84t-7,34.42q0,32.84,11.73,52.39t36.76,30.5a283.38,283.38,0,0,0,39.1,14.09q21.89,6.24,50.83,13.28,25.82,6.27,50.84,12.52a184,184,0,0,1,44.19,16.81,95.55,95.55,0,0,1,31.28,27q12.12,16.41,12.12,43,0,25.81-12.12,43.79A97.68,97.68,0,0,1,2393,546.61,137.52,137.52,0,0,1,2351.14,563a208.55,208.55,0,0,1-45,5.09q-71.17,0-109.1-31.67t-37.93-99.72h-15.64q0,75.87,41.06,111.06T2306.18,583a237.42,237.42,0,0,0,52-5.87A144.48,144.48,0,0,0,2405.11,558a106,106,0,0,0,33.63-34.41q12.9-21.12,12.9-51.62,0-28.93-11.34-46.92a95.06,95.06,0,0,0-29.72-29.72,157.69,157.69,0,0,0-41.44-18.37q-23.2-6.69-46.54-12.91-28.71-7.53-57.48-14.86a347.23,347.23,0,0,1-45.75-14.86q-20.34-8.61-32.46-24.63t-12.12-45.75q0-5.47,3.13-19.55t14.86-28.55q11.73-14.46,36-25.81t66.48-11.34q28.93,0,52.79,6.26t41.05,19.94a90.73,90.73,0,0,1,26.6,34.8q9.38,21.12,9.38,51.62Z" transform="translate(-43.36 -10.98)"/></svg>